<svg width="101" height="51" viewBox="0 0 101 51" fill="none" xmlns="http://www.w3.org/2000/svg">
<g clip-path="url(#clip0_102_111)">
<rect x="0.455688" y="0.727905" width="100" height="50" rx="25" fill="white"/>
<rect x="0.455688" y="0.727905" width="100" height="50" fill="#5E9AE3"/>
<g filter="url(#filter0_d_102_111)">
<path d="M95.6676 43.384C104.017 43.384 110.786 36.3293 110.786 27.6269C110.786 18.9245 104.017 11.8698 95.6676 11.8698C87.9217 11.8698 81.5364 17.9408 80.6531 25.7663C80.0212 25.6614 79.3721 25.6067 78.71 25.6067C72.8853 25.6067 68.0593 29.8351 67.2004 35.3569C66.1889 35.0595 65.114 34.8994 63.9999 34.8994C60.0075 34.8994 56.5197 36.9552 54.6421 40.0149C53.5567 39.582 52.3707 39.3437 51.1285 39.3437C48.4647 39.3437 46.0597 40.4396 44.3495 42.2002C42.6046 39.0766 38.8856 36.9196 34.5796 36.9196C31.8033 36.9196 29.2711 37.8162 27.3546 39.2904C24.8051 35.7219 19.6654 33.2833 13.7402 33.2833C5.27749 33.2833 -1.58289 38.2578 -1.58289 44.3941C-1.58289 50.5304 5.27749 55.5049 13.7402 55.5049C18.5267 55.5049 22.8007 53.9135 25.6106 51.4206C27.5579 53.8853 30.8483 55.5049 34.5796 55.5049C37.7438 55.5049 40.591 54.3402 42.5708 52.4831C44.0502 55.6957 47.3256 57.9291 51.1285 57.9291C54.2198 57.9291 56.9626 56.4533 58.6754 54.1754C60.2477 55.0218 62.0645 55.5049 63.9999 55.5049C69.0187 55.5049 73.24 52.2562 74.4677 47.8485C75.7822 48.3572 77.2132 48.6364 78.71 48.6364C83.409 48.6364 87.458 45.8846 89.2985 41.9218C91.2342 42.8601 93.3922 43.384 95.6676 43.384Z" fill="#A5C7F0"/>
</g>
<g filter="url(#filter1_d_102_111)">
<path fill-rule="evenodd" clip-rule="evenodd" d="M103.023 48.6364C111.373 48.6364 118.141 41.5816 118.141 32.8792C118.141 24.1768 111.373 17.1221 103.023 17.1221C95.2768 17.1221 88.8915 23.1931 88.0082 31.0186C87.3763 30.9137 86.7272 30.859 86.0652 30.859C80.2404 30.859 75.4144 35.0874 74.5555 40.6092C73.544 40.3118 72.4691 40.1517 71.355 40.1517C67.3626 40.1517 63.8748 42.2075 61.9972 45.2673C60.9118 44.8343 59.7258 44.596 58.4836 44.596C55.8198 44.596 53.4148 45.6919 51.7046 47.4525C49.9597 44.3289 46.2407 42.1719 41.9347 42.1719C39.1584 42.1719 36.6262 43.0685 34.7098 44.5427C32.1602 40.9742 27.0205 38.5356 21.0953 38.5356C12.6326 38.5356 5.77222 43.5101 5.77222 49.6464C5.77222 55.7827 12.6326 60.7572 21.0953 60.7572C25.8818 60.7572 30.1558 59.1658 32.9657 56.6729C34.9129 59.1376 38.2034 60.7572 41.9347 60.7572C45.0989 60.7572 47.9461 59.5925 49.9259 57.7354C51.4053 60.948 54.6807 63.1814 58.4836 63.1814C61.5749 63.1814 64.3177 61.7056 66.0305 59.4277C67.6028 60.2741 69.4196 60.7572 71.355 60.7572C76.3738 60.7572 80.5951 57.5085 81.8228 53.1008C83.1374 53.6095 84.5683 53.8887 86.0652 53.8887C90.7642 53.8887 94.8131 51.1369 96.6536 47.1741C98.5893 48.1125 100.747 48.6364 103.023 48.6364Z" fill="#FBFDFF"/>
</g>
<ellipse cx="38.0528" cy="27.2229" rx="42.496" ry="42.4231" fill="#F7F8FB" fill-opacity="0.05"/>
<ellipse cx="32.1278" cy="27.2229" rx="36.5711" ry="36.3626" fill="#F7F8FB" fill-opacity="0.05"/>
<ellipse cx="26.2029" cy="27.2229" rx="30.6462" ry="30.3022" fill="#F7F8FB" fill-opacity="0.05"/>
<circle cx="25.4557" cy="25.7279" r="21.875" fill="#E9C948"/>
<g filter="url(#filter2_ddii_102_111)">
<ellipse cx="25.4557" cy="25.7279" rx="20.3125" ry="20.3125" fill="#E9C948" fill-opacity="0.2" shape-rendering="crispEdges"/>
</g>
</g>
<defs>
<filter id="filter0_d_102_111" x="-2.20789" y="11.2448" width="113.619" height="47.3093" filterUnits="userSpaceOnUse" color-interpolation-filters="sRGB">
<feFlood flood-opacity="0" result="BackgroundImageFix"/>
<feColorMatrix in="SourceAlpha" type="matrix" values="0 0 0 0 0 0 0 0 0 0 0 0 0 0 0 0 0 0 127 0" result="hardAlpha"/>
<feOffset/>
<feGaussianBlur stdDeviation="0.3125"/>
<feComposite in2="hardAlpha" operator="out"/>
<feColorMatrix type="matrix" values="0 0 0 0 0 0 0 0 0 0 0 0 0 0 0 0 0 0 0.1 0"/>
<feBlend mode="normal" in2="BackgroundImageFix" result="effect1_dropShadow_102_111"/>
<feBlend mode="normal" in="SourceGraphic" in2="effect1_dropShadow_102_111" result="shape"/>
</filter>
<filter id="filter1_d_102_111" x="5.02222" y="16.3721" width="113.869" height="47.5593" filterUnits="userSpaceOnUse" color-interpolation-filters="sRGB">
<feFlood flood-opacity="0" result="BackgroundImageFix"/>
<feColorMatrix in="SourceAlpha" type="matrix" values="0 0 0 0 0 0 0 0 0 0 0 0 0 0 0 0 0 0 127 0" result="hardAlpha"/>
<feOffset/>
<feGaussianBlur stdDeviation="0.375"/>
<feComposite in2="hardAlpha" operator="out"/>
<feColorMatrix type="matrix" values="0 0 0 0 0 0 0 0 0 0 0 0 0 0 0 0 0 0 0.1 0"/>
<feBlend mode="normal" in2="BackgroundImageFix" result="effect1_dropShadow_102_111"/>
<feBlend mode="normal" in="SourceGraphic" in2="effect1_dropShadow_102_111" result="shape"/>
</filter>
<filter id="filter2_ddii_102_111" x="3.76819" y="4.04041" width="43.375" height="43.375" filterUnits="userSpaceOnUse" color-interpolation-filters="sRGB">
<feFlood flood-opacity="0" result="BackgroundImageFix"/>
<feColorMatrix in="SourceAlpha" type="matrix" values="0 0 0 0 0 0 0 0 0 0 0 0 0 0 0 0 0 0 127 0" result="hardAlpha"/>
<feOffset dx="0.5" dy="0.5"/>
<feGaussianBlur stdDeviation="0.4375"/>
<feComposite in2="hardAlpha" operator="out"/>
<feColorMatrix type="matrix" values="0 0 0 0 0.67451 0 0 0 0 0.584314 0 0 0 0 0.203922 0 0 0 0.35 0"/>
<feBlend mode="normal" in2="BackgroundImageFix" result="effect1_dropShadow_102_111"/>
<feColorMatrix in="SourceAlpha" type="matrix" values="0 0 0 0 0 0 0 0 0 0 0 0 0 0 0 0 0 0 127 0" result="hardAlpha"/>
<feOffset dx="-0.5" dy="-0.5"/>
<feGaussianBlur stdDeviation="0.4375"/>
<feComposite in2="hardAlpha" operator="out"/>
<feColorMatrix type="matrix" values="0 0 0 0 1 0 0 0 0 0.933333 0 0 0 0 0.662745 0 0 0 0.35 0"/>
<feBlend mode="normal" in2="effect1_dropShadow_102_111" result="effect2_dropShadow_102_111"/>
<feBlend mode="normal" in="SourceGraphic" in2="effect2_dropShadow_102_111" result="shape"/>
<feColorMatrix in="SourceAlpha" type="matrix" values="0 0 0 0 0 0 0 0 0 0 0 0 0 0 0 0 0 0 127 0" result="hardAlpha"/>
<feOffset dx="0.5" dy="0.5"/>
<feGaussianBlur stdDeviation="0.4375"/>
<feComposite in2="hardAlpha" operator="arithmetic" k2="-1" k3="1"/>
<feColorMatrix type="matrix" values="0 0 0 0 1 0 0 0 0 0.932919 0 0 0 0 0.6625 0 0 0 0.35 0"/>
<feBlend mode="normal" in2="shape" result="effect3_innerShadow_102_111"/>
<feColorMatrix in="SourceAlpha" type="matrix" values="0 0 0 0 0 0 0 0 0 0 0 0 0 0 0 0 0 0 127 0" result="hardAlpha"/>
<feOffset dx="-0.5" dy="-0.5"/>
<feGaussianBlur stdDeviation="0.4375"/>
<feComposite in2="hardAlpha" operator="arithmetic" k2="-1" k3="1"/>
<feColorMatrix type="matrix" values="0 0 0 0 0.675833 0 0 0 0 0.582364 0 0 0 0 0.205566 0 0 0 0.35 0"/>
<feBlend mode="normal" in2="effect3_innerShadow_102_111" result="effect4_innerShadow_102_111"/>
</filter>
<clipPath id="clip0_102_111">
<rect x="0.455688" y="0.727905" width="100" height="50" rx="25" fill="white"/>
</clipPath>
</defs>
</svg>
