<svg width="100" height="50" viewBox="0 0 100 50" fill="none" xmlns="http://www.w3.org/2000/svg">
<g clip-path="url(#clip0_102_191)">
<rect width="100" height="50" rx="25" transform="matrix(-1 0 0 1 99.9999 0)" fill="#695959"/>
<rect width="100" height="50" transform="matrix(-1 0 0 1 99.9999 0)" fill="#090C0F"/>
<g filter="url(#filter0_d_102_191)">
<path d="M4.78798 42.6561C-3.56188 42.6561 -10.3308 35.6014 -10.3308 26.899C-10.3308 18.1966 -3.56188 11.1418 4.78798 11.1418C12.5339 11.1418 18.9192 17.2129 19.8025 25.0384C20.4343 24.9335 21.0835 24.8788 21.7455 24.8788C27.5703 24.8788 32.3963 29.1072 33.2552 34.629C34.2667 34.3316 35.3415 34.1715 36.4557 34.1715C40.4481 34.1715 43.9359 36.2273 45.8135 39.287C46.8989 38.8541 48.0848 38.6158 49.3271 38.6158C51.9909 38.6158 54.3959 39.7117 56.1061 41.4723C57.8509 38.3487 61.5699 36.1917 65.876 36.1917C68.6522 36.1917 71.1845 37.0883 73.1009 38.5625C75.6504 34.994 80.7902 32.5554 86.7154 32.5554C95.1781 32.5554 102.038 37.5299 102.038 43.6662C102.038 49.8025 95.1781 54.777 86.7154 54.777C81.9288 54.777 77.6549 53.1856 74.8449 50.6927C72.8977 53.1574 69.6072 54.777 65.876 54.777C62.7118 54.777 59.8646 53.6123 57.8847 51.7552C56.4053 54.9678 53.13 57.2012 49.3271 57.2012C46.2357 57.2012 43.493 55.7254 41.7802 53.4475C40.2079 54.2939 38.3911 54.777 36.4557 54.777C31.4369 54.777 27.2156 51.5283 25.9879 47.1206C24.6733 47.6293 23.2424 47.9085 21.7455 47.9085C17.0465 47.9085 12.9975 45.1567 11.157 41.1939C9.22141 42.1322 7.0634 42.6561 4.78798 42.6561Z" fill="#A5C7F0"/>
</g>
<g filter="url(#filter1_d_102_191)">
<path fill-rule="evenodd" clip-rule="evenodd" d="M-2.56712 47.9086C-10.917 47.9086 -17.6859 40.8539 -17.6859 32.1514C-17.6859 23.449 -10.917 16.3943 -2.56712 16.3943C5.17874 16.3943 11.5641 22.4653 12.4474 30.2908C13.0792 30.1859 13.7284 30.1313 14.3904 30.1313C20.2152 30.1313 25.0412 34.3596 25.9 39.8814C26.9116 39.5841 27.9864 39.424 29.1006 39.424C33.093 39.424 36.5808 41.4798 38.4583 44.5395C39.5438 44.1066 40.7297 43.8683 41.972 43.8683C44.6358 43.8683 47.0408 44.9641 48.751 46.7248C50.4959 43.6011 54.2148 41.4441 58.5209 41.4441C61.2971 41.4441 63.8294 42.3407 65.7458 43.815C68.2953 40.2464 73.435 37.8078 79.3603 37.8078C87.823 37.8078 94.6833 42.7823 94.6833 48.9186C94.6833 55.055 87.823 60.0294 79.3603 60.0294C74.5737 60.0294 70.2998 58.438 67.4898 55.9452C65.5426 58.4099 62.2521 60.0295 58.5209 60.0295C55.3567 60.0295 52.5095 58.8647 50.5296 57.0076C49.0502 60.2202 45.7749 62.4536 41.972 62.4536C38.8806 62.4536 36.1379 60.9778 34.4251 58.6999C32.8528 59.5463 31.036 60.0294 29.1006 60.0294C24.0818 60.0294 19.8605 56.7808 18.6328 52.373C17.3182 52.8817 15.8873 53.1609 14.3904 53.1609C9.69141 53.1609 5.64245 50.4091 3.80193 46.4463C1.86631 47.3847 -0.29171 47.9086 -2.56712 47.9086Z" fill="#414447"/>
</g>
<ellipse cx="42.496" cy="42.4231" rx="42.496" ry="42.4231" transform="matrix(-1 0 0 1 104.899 -15.9281)" fill="#F7F8FB" fill-opacity="0.05"/>
<ellipse cx="36.5711" cy="36.3626" rx="36.5711" ry="36.3626" transform="matrix(-1 0 0 1 104.899 -9.86768)" fill="#F7F8FB" fill-opacity="0.05"/>
<ellipse cx="30.6462" cy="30.3022" rx="30.6462" ry="30.3022" transform="matrix(-1 0 0 1 104.899 -3.80725)" fill="#F7F8FB" fill-opacity="0.05"/>
<circle cx="21.875" cy="21.875" r="21.875" transform="matrix(-1 0 0 1 96.8749 3.125)" fill="#ECE8DA"/>
<g filter="url(#filter2_ddii_102_191)">
<ellipse cx="20.3125" cy="20.3125" rx="20.3125" ry="20.3125" transform="matrix(-1 0 0 1 95.3124 4.6875)" fill="#E9C948" fill-opacity="0.2" shape-rendering="crispEdges"/>
</g>
</g>
<path d="M21 5L21.0507 6.38733C21.0818 7.2361 21.7537 7.91679 22.5912 7.94781L24 8L22.5912 8.05219C21.7537 8.08321 21.0818 8.7639 21.0507 9.61267L21 11L20.9493 9.61267C20.9182 8.7639 20.2463 8.08321 19.4088 8.05219L18 8L19.4088 7.94781C20.2463 7.91679 20.9182 7.2361 20.9493 6.38733L21 5Z" fill="white"/>
<path d="M22.48 5.40192L21.8395 6.62909C21.4477 7.37988 21.6938 8.30989 22.4038 8.76115L23.5981 9.52027L22.3523 8.85154C21.6117 8.45402 20.694 8.70299 20.2484 9.42232L19.52 10.5981L20.1605 9.3709C20.5523 8.62012 20.3062 7.6901 19.5962 7.23885L18.4019 6.47973L19.6477 7.14845C20.3883 7.54598 21.306 7.297 21.7516 6.57768L22.48 5.40192Z" fill="white"/>
<path d="M23.5634 6.5L22.4034 7.23819C21.6936 7.68982 21.448 8.61996 21.8402 9.37054L22.5 10.6332L21.751 9.42273C21.3058 8.70317 20.3881 8.45372 19.6474 8.85086L18.4366 9.5L19.5966 8.7618C20.3064 8.31018 20.552 7.38004 20.1598 6.62946L19.5 5.36681L20.249 6.57727C20.6942 7.29682 21.6119 7.54628 22.3526 7.14914L23.5634 6.5Z" fill="white"/>
<path d="M45 23L45.0507 24.3873C45.0818 25.2361 45.7537 25.9168 46.5912 25.9478L48 26L46.5912 26.0522C45.7537 26.0832 45.0818 26.7639 45.0507 27.6127L45 29L44.9493 27.6127C44.9182 26.7639 44.2463 26.0832 43.4088 26.0522L42 26L43.4088 25.9478C44.2463 25.9168 44.9182 25.2361 44.9493 24.3873L45 23Z" fill="white"/>
<path d="M46.48 23.4019L45.8395 24.6291C45.4477 25.3799 45.6938 26.3099 46.4038 26.7611L47.5981 27.5203L46.3523 26.8515C45.6117 26.454 44.694 26.703 44.2484 27.4223L43.52 28.5981L44.1605 27.3709C44.5523 26.6201 44.3062 25.6901 43.5962 25.2388L42.4019 24.4797L43.6477 25.1485C44.3883 25.546 45.306 25.297 45.7516 24.5777L46.48 23.4019Z" fill="white"/>
<path d="M47.5634 24.5L46.4034 25.2382C45.6936 25.6898 45.448 26.62 45.8402 27.3705L46.5 28.6332L45.751 27.4227C45.3058 26.7032 44.3881 26.4537 43.6474 26.8509L42.4366 27.5L43.5966 26.7618C44.3064 26.3102 44.552 25.38 44.1598 24.6295L43.5 23.3668L44.249 24.5773C44.6942 25.2968 45.6119 25.5463 46.3526 25.1491L47.5634 24.5Z" fill="white"/>
<path d="M33 19L33.0507 20.3873C33.0818 21.2361 33.7537 21.9168 34.5912 21.9478L36 22L34.5912 22.0522C33.7537 22.0832 33.0818 22.7639 33.0507 23.6127L33 25L32.9493 23.6127C32.9182 22.7639 32.2463 22.0832 31.4088 22.0522L30 22L31.4088 21.9478C32.2463 21.9168 32.9182 21.2361 32.9493 20.3873L33 19Z" fill="white"/>
<path d="M34.48 19.4019L33.8395 20.6291C33.4477 21.3799 33.6938 22.3099 34.4038 22.7611L35.5981 23.5203L34.3523 22.8515C33.6117 22.454 32.694 22.703 32.2484 23.4223L31.52 24.5981L32.1605 23.3709C32.5523 22.6201 32.3062 21.6901 31.5962 21.2388L30.4019 20.4797L31.6477 21.1485C32.3883 21.546 33.306 21.297 33.7516 20.5777L34.48 19.4019Z" fill="white"/>
<path d="M35.5634 20.5L34.4034 21.2382C33.6936 21.6898 33.448 22.62 33.8402 23.3705L34.5 24.6332L33.751 23.4227C33.3058 22.7032 32.3881 22.4537 31.6474 22.8509L30.4366 23.5L31.5966 22.7618C32.3064 22.3102 32.552 21.38 32.1598 20.6295L31.5 19.3668L32.249 20.5773C32.6942 21.2968 33.6119 21.5463 34.3526 21.1491L35.5634 20.5Z" fill="white"/>
<path d="M41 7L41.0507 8.38733C41.0818 9.2361 41.7537 9.91679 42.5912 9.94781L44 10L42.5912 10.0522C41.7537 10.0832 41.0818 10.7639 41.0507 11.6127L41 13L40.9493 11.6127C40.9182 10.7639 40.2463 10.0832 39.4088 10.0522L38 10L39.4088 9.94781C40.2463 9.91679 40.9182 9.2361 40.9493 8.38733L41 7Z" fill="white"/>
<path d="M42.48 7.40192L41.8395 8.62909C41.4477 9.37988 41.6938 10.3099 42.4038 10.7611L43.5981 11.5203L42.3523 10.8515C41.6117 10.454 40.694 10.703 40.2484 11.4223L39.52 12.5981L40.1605 11.3709C40.5523 10.6201 40.3062 9.6901 39.5962 9.23885L38.4019 8.47973L39.6477 9.14845C40.3883 9.54598 41.306 9.297 41.7516 8.57768L42.48 7.40192Z" fill="white"/>
<path d="M43.5634 8.5L42.4034 9.23819C41.6936 9.68982 41.448 10.62 41.8402 11.3705L42.5 12.6332L41.751 11.4227C41.3058 10.7032 40.3881 10.4537 39.6474 10.8509L38.4366 11.5L39.5966 10.7618C40.3064 10.3102 40.552 9.38004 40.1598 8.62946L39.5 7.36681L40.249 8.57727C40.6942 9.29682 41.6119 9.54628 42.3526 9.14914L43.5634 8.5Z" fill="white"/>
<circle cx="68" cy="15" r="4" fill="#E1E1E1"/>
<circle cx="88" cy="24" r="5" fill="#E1E1E1"/>
<circle cx="69.5" cy="35.5" r="4.5" fill="#E1E1E1"/>
<defs>
<filter id="filter0_d_102_191" x="-10.9558" y="10.5168" width="113.619" height="47.3093" filterUnits="userSpaceOnUse" color-interpolation-filters="sRGB">
<feFlood flood-opacity="0" result="BackgroundImageFix"/>
<feColorMatrix in="SourceAlpha" type="matrix" values="0 0 0 0 0 0 0 0 0 0 0 0 0 0 0 0 0 0 127 0" result="hardAlpha"/>
<feOffset/>
<feGaussianBlur stdDeviation="0.3125"/>
<feComposite in2="hardAlpha" operator="out"/>
<feColorMatrix type="matrix" values="0 0 0 0 0 0 0 0 0 0 0 0 0 0 0 0 0 0 0.1 0"/>
<feBlend mode="normal" in2="BackgroundImageFix" result="effect1_dropShadow_102_191"/>
<feBlend mode="normal" in="SourceGraphic" in2="effect1_dropShadow_102_191" result="shape"/>
</filter>
<filter id="filter1_d_102_191" x="-18.4359" y="15.6443" width="113.869" height="47.5593" filterUnits="userSpaceOnUse" color-interpolation-filters="sRGB">
<feFlood flood-opacity="0" result="BackgroundImageFix"/>
<feColorMatrix in="SourceAlpha" type="matrix" values="0 0 0 0 0 0 0 0 0 0 0 0 0 0 0 0 0 0 127 0" result="hardAlpha"/>
<feOffset/>
<feGaussianBlur stdDeviation="0.375"/>
<feComposite in2="hardAlpha" operator="out"/>
<feColorMatrix type="matrix" values="0 0 0 0 0 0 0 0 0 0 0 0 0 0 0 0 0 0 0.1 0"/>
<feBlend mode="normal" in2="BackgroundImageFix" result="effect1_dropShadow_102_191"/>
<feBlend mode="normal" in="SourceGraphic" in2="effect1_dropShadow_102_191" result="shape"/>
</filter>
<filter id="filter2_ddii_102_191" x="53.3124" y="3.3125" width="43.375" height="43.375" filterUnits="userSpaceOnUse" color-interpolation-filters="sRGB">
<feFlood flood-opacity="0" result="BackgroundImageFix"/>
<feColorMatrix in="SourceAlpha" type="matrix" values="0 0 0 0 0 0 0 0 0 0 0 0 0 0 0 0 0 0 127 0" result="hardAlpha"/>
<feOffset dx="0.5" dy="0.5"/>
<feGaussianBlur stdDeviation="0.4375"/>
<feComposite in2="hardAlpha" operator="out"/>
<feColorMatrix type="matrix" values="0 0 0 0 0.67451 0 0 0 0 0.584314 0 0 0 0 0.203922 0 0 0 0.35 0"/>
<feBlend mode="normal" in2="BackgroundImageFix" result="effect1_dropShadow_102_191"/>
<feColorMatrix in="SourceAlpha" type="matrix" values="0 0 0 0 0 0 0 0 0 0 0 0 0 0 0 0 0 0 127 0" result="hardAlpha"/>
<feOffset dx="-0.5" dy="-0.5"/>
<feGaussianBlur stdDeviation="0.4375"/>
<feComposite in2="hardAlpha" operator="out"/>
<feColorMatrix type="matrix" values="0 0 0 0 1 0 0 0 0 0.933333 0 0 0 0 0.662745 0 0 0 0.35 0"/>
<feBlend mode="normal" in2="effect1_dropShadow_102_191" result="effect2_dropShadow_102_191"/>
<feBlend mode="normal" in="SourceGraphic" in2="effect2_dropShadow_102_191" result="shape"/>
<feColorMatrix in="SourceAlpha" type="matrix" values="0 0 0 0 0 0 0 0 0 0 0 0 0 0 0 0 0 0 127 0" result="hardAlpha"/>
<feOffset dx="0.5" dy="0.5"/>
<feGaussianBlur stdDeviation="0.4375"/>
<feComposite in2="hardAlpha" operator="arithmetic" k2="-1" k3="1"/>
<feColorMatrix type="matrix" values="0 0 0 0 1 0 0 0 0 0.932919 0 0 0 0 0.6625 0 0 0 0.35 0"/>
<feBlend mode="normal" in2="shape" result="effect3_innerShadow_102_191"/>
<feColorMatrix in="SourceAlpha" type="matrix" values="0 0 0 0 0 0 0 0 0 0 0 0 0 0 0 0 0 0 127 0" result="hardAlpha"/>
<feOffset dx="-0.5" dy="-0.5"/>
<feGaussianBlur stdDeviation="0.4375"/>
<feComposite in2="hardAlpha" operator="arithmetic" k2="-1" k3="1"/>
<feColorMatrix type="matrix" values="0 0 0 0 0.675833 0 0 0 0 0.582364 0 0 0 0 0.205566 0 0 0 0.35 0"/>
<feBlend mode="normal" in2="effect3_innerShadow_102_191" result="effect4_innerShadow_102_191"/>
</filter>
<clipPath id="clip0_102_191">
<rect width="100" height="50" rx="25" transform="matrix(-1 0 0 1 99.9999 0)" fill="white"/>
</clipPath>
</defs>
</svg>
