<svg width="40" height="44" viewBox="0 0 40 44" fill="none" xmlns="http://www.w3.org/2000/svg">
<path d="M17.595 26.647C17.6689 26.5097 17.7063 26.3557 17.7035 26.1998C17.7008 26.0439 17.658 25.8913 17.5793 25.7568C17.5005 25.6222 17.3885 25.5102 17.254 25.4314C17.1194 25.3526 16.9668 25.3098 16.8109 25.307C10.7559 25.107 9.86096 21.473 6.23596 22.175C5.65209 22.2827 5.0962 22.5078 4.60199 22.8368C4.10778 23.1659 3.68556 23.5919 3.36096 24.089C0.221959 28.908 -0.467091 33.761 1.42291 37.766C3.99791 43.189 12.4569 44.22 18.8879 43.966C19.063 43.9583 19.2321 43.9002 19.3749 43.7988C19.5178 43.6974 19.6283 43.5569 19.6932 43.3941C19.7582 43.2314 19.7748 43.0534 19.741 42.8815C19.7073 42.7096 19.6246 42.5511 19.5029 42.425C17.5532 40.337 16.3177 37.6833 15.9747 34.8473C15.6318 32.0112 16.1992 29.1395 17.595 26.647V26.647Z" fill="#176310"/>
<path d="M17.5279 21.0359C20.3175 21.0357 22.9929 19.9273 24.9653 17.9547C26.9378 15.982 28.0459 13.3066 28.0459 10.517C28.0453 9.96476 28.0019 9.41345 27.9159 8.86798C27.5363 6.47825 26.3444 4.2925 24.541 2.67926C22.7375 1.06602 20.433 0.123963 18.0159 0.0119629C17.8529 0.00396289 17.6899 0 17.5259 0C14.7364 0 12.0611 1.10812 10.0886 3.08063C8.11605 5.05314 7.00793 7.7284 7.00793 10.5179C7.00793 13.3075 8.11605 15.9828 10.0886 17.9553C12.0611 19.9278 14.7364 21.0359 17.5259 21.0359H17.5279ZM10.9599 8.28998C11.1225 7.82093 11.3919 7.39606 11.7467 7.04889C12.1015 6.70171 12.5322 6.44169 13.0047 6.28937C13.4772 6.13704 13.9786 6.09659 14.4694 6.17114C14.9602 6.24569 15.427 6.43324 15.8329 6.71899C18.2541 8.44995 21.1567 9.3788 24.1329 9.375C24.2109 9.375 24.287 9.36898 24.364 9.36798C24.4288 9.74758 24.4622 10.1319 24.4639 10.517C24.4634 11.5231 24.244 12.5171 23.821 13.4301C23.398 14.343 22.7814 15.1529 22.0141 15.8037C21.2468 16.4545 20.3471 16.9307 19.3774 17.1991C18.4077 17.4675 17.3913 17.5218 16.3985 17.3581C15.4057 17.1944 14.4605 16.8168 13.6282 16.2513C12.796 15.6858 12.0968 14.9461 11.579 14.0834C11.0612 13.2207 10.7373 12.2556 10.6297 11.2552C10.5221 10.2549 10.6334 9.24305 10.9559 8.28998H10.9599Z" fill="#176310"/>
<path d="M25.593 23.677H25.588C23.1364 24.6177 21.1345 26.4556 19.988 28.8179V28.8179C18.9682 30.9541 18.7237 33.3785 19.2965 35.6752C19.8693 37.9719 21.2237 39.9977 23.1271 41.4047C25.0306 42.8118 27.3645 43.5124 29.7282 43.3864C32.0919 43.2604 34.338 42.3156 36.0811 40.7141C37.8241 39.1127 38.9554 36.9545 39.2808 34.6099C39.6062 32.2653 39.1054 29.8805 37.8643 27.8649C36.6232 25.8493 34.7192 24.3286 32.4792 23.5637C30.2391 22.7988 27.8026 22.8374 25.588 23.6729L25.593 23.677ZM30.8229 34.8509C30.8229 39.4939 31.2459 39.007 28.3569 39.013C28.2504 39.0131 28.145 38.9922 28.0466 38.9514C27.9482 38.9107 27.8588 38.851 27.7836 38.7756C27.7083 38.7003 27.6486 38.6108 27.608 38.5123C27.5674 38.4139 27.5467 38.3084 27.5469 38.2019V34.854H24.196C24.0897 34.855 23.9842 34.8349 23.8857 34.7947C23.7873 34.7545 23.6979 34.6951 23.6226 34.62C23.5474 34.5449 23.4879 34.4555 23.4476 34.3571C23.4073 34.2587 23.387 34.1533 23.3879 34.0469V32.388C23.387 32.2816 23.4073 32.1762 23.4476 32.0778C23.4879 31.9794 23.5474 31.89 23.6226 31.8148C23.6979 31.7397 23.7873 31.6803 23.8857 31.6401C23.9842 31.6 24.0897 31.5799 24.196 31.5809H27.5469C27.5469 26.9429 27.125 27.4199 30.012 27.4259C30.1183 27.4248 30.2238 27.445 30.3222 27.4852C30.4207 27.5253 30.5101 27.5847 30.5853 27.6599C30.6606 27.735 30.72 27.8244 30.7603 27.9228C30.8006 28.0212 30.8209 28.1266 30.82 28.2329V31.5839H34.168C34.2745 31.5838 34.3799 31.6047 34.4783 31.6454C34.5767 31.6861 34.6661 31.7459 34.7414 31.8212C34.8167 31.8966 34.8763 31.986 34.9169 32.0845C34.9575 32.1829 34.9782 32.2884 34.978 32.3949C34.982 35.3139 35.4039 34.8509 30.8229 34.8509Z" fill="#176310"/>
</svg>
